<svg width="15" height="16" viewBox="0 0 15 16" fill="none" xmlns="http://www.w3.org/2000/svg">
<path d="M14.4009 7.80374C14.4009 4.05094 11.35 1 7.59719 1C3.8444 1 0.793457 4.05094 0.793457 7.80374C0.793457 11.5565 3.28577 14.0059 6.53724 14.5215V9.76608H4.80408V7.80374H6.53724V6.29975C6.53724 4.59524 7.55422 3.64988 9.10118 3.64988C10.6481 3.64988 10.6195 3.77879 10.6195 3.77879V5.45466H9.76006C8.91497 5.45466 8.65715 5.98463 8.65715 6.51461V7.78941H10.5479L10.2471 9.75175H8.65715V14.5072C11.9086 13.9916 14.4009 11.1841 14.4009 7.78941V7.80374Z" stroke="#311E3F" stroke-miterlimit="10"/>
<path d="M10.2467 9.78068L10.5475 7.81834H8.65678V6.54353C8.65678 5.99923 8.9146 5.48358 9.75969 5.48358H10.6191V3.80771C10.6191 3.80771 9.84564 3.6788 9.10081 3.6788C7.55385 3.6788 6.53687 4.62416 6.53687 6.32868V7.83266H4.80371V9.795H6.53687V14.5505C6.88064 14.6078 7.23873 14.6364 7.59682 14.6364C7.95492 14.6364 8.31301 14.6078 8.65678 14.5505V9.795H10.2467V9.78068Z" fill="#311E3F"/>
</svg>
