<svg width="15" height="15" viewBox="0 0 15 15" fill="none" xmlns="http://www.w3.org/2000/svg">
<path d="M7.40286 14.1307C11.1605 14.1307 14.2066 11.0846 14.2066 7.32696C14.2066 3.56936 11.1605 0.523224 7.40286 0.523224C3.64526 0.523224 0.599121 3.56936 0.599121 7.32696C0.599121 11.0846 3.64526 14.1307 7.40286 14.1307Z" stroke="#311E3F" stroke-miterlimit="10"/>
<path d="M7.4024 3.8177C8.54829 3.8177 8.67721 3.8177 9.13556 3.84635C9.55095 3.86067 9.78012 3.93229 9.93769 3.98958C10.1382 4.0612 10.2815 4.16146 10.4247 4.3047C10.5679 4.44794 10.6682 4.59118 10.7398 4.79171C10.7971 4.94927 10.8687 5.16412 10.883 5.59383C10.8974 6.05219 10.9117 6.1811 10.9117 7.32699C10.9117 8.47288 10.9117 8.6018 10.883 9.06015C10.8687 9.47554 10.7971 9.70472 10.7398 9.86228C10.6682 10.0628 10.5679 10.206 10.4247 10.3493C10.2815 10.4925 10.1382 10.5928 9.93769 10.6644C9.78012 10.7217 9.56527 10.7933 9.13556 10.8076C8.67721 10.822 8.54829 10.8363 7.4024 10.8363C6.2565 10.8363 6.12759 10.8363 5.66924 10.8076C5.25385 10.7933 5.02467 10.7217 4.86711 10.6644C4.66658 10.5928 4.52335 10.4925 4.38011 10.3493C4.23687 10.206 4.1366 10.0628 4.06499 9.86228C4.00769 9.70472 3.93607 9.48986 3.92175 9.06015C3.90743 8.6018 3.8931 8.47288 3.8931 7.32699C3.8931 6.1811 3.8931 6.05219 3.92175 5.59383C3.93607 5.17844 4.00769 4.94927 4.06499 4.79171C4.1366 4.59118 4.23687 4.44794 4.38011 4.3047C4.52335 4.16146 4.66658 4.0612 4.86711 3.98958C5.02467 3.93229 5.23953 3.86067 5.66924 3.84635C6.12759 3.83202 6.2565 3.8177 7.4024 3.8177ZM7.4024 3.04422C6.24218 3.04422 6.09895 3.04422 5.64059 3.07287C5.18223 3.08719 4.86711 3.17313 4.59496 3.2734C4.30849 3.38799 4.07931 3.53122 3.83581 3.7604C3.59231 4.0039 3.44907 4.23308 3.3488 4.51955C3.24854 4.7917 3.17692 5.10683 3.14827 5.56518C3.13395 6.02354 3.11963 6.16678 3.11963 7.32699C3.11963 8.48721 3.11962 8.63045 3.14827 9.0888C3.16259 9.54716 3.24854 9.86228 3.3488 10.1344C3.46339 10.4209 3.60663 10.6501 3.83581 10.8936C4.07931 11.1371 4.30849 11.2803 4.59496 11.3806C4.86711 11.4809 5.18223 11.5525 5.64059 11.5811C6.09895 11.5954 6.24218 11.6098 7.4024 11.6098C8.56261 11.6098 8.70585 11.6098 9.1642 11.5811C9.62256 11.5668 9.93769 11.4809 10.2098 11.3806C10.4963 11.266 10.7255 11.1228 10.969 10.8936C11.2125 10.6501 11.3557 10.4209 11.456 10.1344C11.5563 9.86228 11.6279 9.54716 11.6565 9.0888C11.6708 8.63045 11.6852 8.48721 11.6852 7.32699C11.6852 6.16678 11.6852 6.02354 11.6565 5.56518C11.6422 5.10683 11.5563 4.7917 11.456 4.51955C11.3414 4.23308 11.1982 4.0039 10.969 3.7604C10.7255 3.5169 10.4963 3.37366 10.2098 3.2734C9.93769 3.17313 9.62256 3.10151 9.1642 3.07287C8.70585 3.05854 8.56261 3.04422 7.4024 3.04422Z" fill="#311E3F"/>
<path d="M7.40294 5.1355C6.18543 5.1355 5.21143 6.12383 5.21143 7.32702C5.21143 8.5302 6.19976 9.51854 7.40294 9.51854C8.60613 9.51854 9.59446 8.5302 9.59446 7.32702C9.59446 6.12383 8.60613 5.1355 7.40294 5.1355ZM7.40294 8.75938C6.61514 8.75938 5.97058 8.11482 5.97058 7.32702C5.97058 6.53921 6.61514 5.89465 7.40294 5.89465C8.19074 5.89465 8.83531 6.53921 8.83531 7.32702C8.83531 8.11482 8.19074 8.75938 7.40294 8.75938Z" fill="#311E3F"/>
<path d="M9.67923 5.56506C9.96402 5.56506 10.1949 5.33419 10.1949 5.0494C10.1949 4.76462 9.96402 4.53375 9.67923 4.53375C9.39444 4.53375 9.16357 4.76462 9.16357 5.0494C9.16357 5.33419 9.39444 5.56506 9.67923 5.56506Z" fill="#311E3F"/>
</svg>
