<svg width="16" height="15" viewBox="0 0 16 15" fill="none" xmlns="http://www.w3.org/2000/svg">
<path d="M8.19631 14.1308C11.9539 14.1308 15.0001 11.0847 15.0001 7.32708C15.0001 3.56948 11.9539 0.523346 8.19631 0.523346C4.43871 0.523346 1.39258 3.56948 1.39258 7.32708C1.39258 11.0847 4.43871 14.1308 8.19631 14.1308Z" stroke="#311E3F" stroke-miterlimit="10"/>
<path d="M6.8212 11.2514C10.1443 11.2514 11.9634 8.50128 11.9634 6.10922C11.9634 3.71717 11.9634 5.95166 11.9634 5.88004C12.3215 5.62222 12.6223 5.3071 12.8658 4.94901C12.5363 5.09224 12.1926 5.19251 11.8345 5.23548C12.2069 5.0063 12.4934 4.66253 12.6223 4.23282C12.2785 4.43336 11.8918 4.59092 11.4764 4.67686C11.1469 4.31877 10.6743 4.10391 10.1586 4.10391C9.15596 4.10391 8.35384 4.90604 8.35384 5.90869C8.35384 6.91135 8.36816 6.19517 8.39681 6.32408C6.89282 6.25246 5.56072 5.53628 4.67265 4.43336C4.51509 4.70551 4.42915 5.0063 4.42915 5.33575C4.42915 5.96599 4.74428 6.51029 5.23128 6.83973C4.93048 6.83973 4.65833 6.75379 4.41483 6.61055C4.41483 6.61055 4.41483 6.62488 4.41483 6.6392C4.41483 7.51294 5.03074 8.24345 5.86152 8.41533C5.70396 8.4583 5.5464 8.47263 5.38884 8.47263C5.23128 8.47263 5.15966 8.47263 5.04508 8.44398C5.27425 9.16017 5.94746 9.69014 6.73526 9.70446C6.11935 10.1915 5.33154 10.4779 4.48645 10.4779C3.64135 10.4779 4.19998 10.4779 4.05674 10.4493C4.85886 10.9649 5.80422 11.2657 6.8212 11.2657" fill="#311E3F"/>
</svg>
