<svg width="16" height="15" viewBox="0 0 16 15" fill="none" xmlns="http://www.w3.org/2000/svg">
<path d="M8.00198 14.1307C11.7596 14.1307 14.8057 11.0846 14.8057 7.32696C14.8057 3.56936 11.7596 0.523224 8.00198 0.523224C4.24438 0.523224 1.19824 3.56936 1.19824 7.32696C1.19824 11.0846 4.24438 14.1307 8.00198 14.1307Z" stroke="#311E3F" stroke-miterlimit="10"/>
<path d="M12.3566 5.14968C12.2563 4.76294 11.9412 4.44782 11.5545 4.34756C10.8526 4.16135 8.01651 4.16135 8.01651 4.16135C8.01651 4.16135 5.18043 4.16135 4.47857 4.34756C4.09183 4.44782 3.77671 4.76294 3.67645 5.14968C3.49024 5.85154 3.49023 7.32688 3.49023 7.32688C3.49023 7.32688 3.49024 8.80221 3.67645 9.50407C3.77671 9.89081 4.09183 10.2059 4.47857 10.3062C5.18043 10.4924 8.01651 10.4924 8.01651 10.4924C8.01651 10.4924 10.8526 10.4924 11.5545 10.3062C11.9412 10.2059 12.2563 9.89081 12.3566 9.50407C12.5428 8.80221 12.5428 7.32688 12.5428 7.32688C12.5428 7.32688 12.5428 5.85154 12.3566 5.14968ZM7.0998 8.68762V5.96613L9.44888 7.32688L7.0998 8.68762Z" fill="#311E3F"/>
</svg>
